<?xml version="1.0" standalone="no"?>
<!DOCTYPE svg PUBLIC "-//W3C//DTD SVG 20010904//EN"
 "http://www.w3.org/TR/2001/REC-SVG-20010904/DTD/svg10.dtd">
<svg version="1.0" xmlns="http://www.w3.org/2000/svg"
 width="1001.000000pt" height="752.000000pt" viewBox="0 0 1001.000000 752.000000"
 preserveAspectRatio="xMidYMid meet">

<g transform="translate(0.000000,752.000000) scale(0.100000,-0.100000)"
fill="#000000" stroke="none">
<path d="M2132 7199 c-80 -15 -134 -51 -245 -162 l-109 -108 -81 12 c-124 18
-413 16 -525 -4 -105 -19 -98 -21 -206 54 -209 147 -403 124 -493 -59 -25 -51
-28 -67 -27 -157 1 -110 24 -196 85 -318 34 -67 35 -91 9 -287 -6 -52 -6 -105
2 -172 l12 -97 -36 -73 c-66 -133 -84 -237 -68 -381 17 -147 64 -229 165 -286
34 -19 66 -48 83 -73 116 -176 292 -267 492 -255 103 6 138 16 213 61 l58 35
53 -72 c242 -328 355 -627 431 -1137 83 -559 99 -648 180 -1000 117 -509 148
-744 172 -1297 7 -158 -4 -238 -42 -313 -24 -47 -54 -72 -156 -129 -68 -38
-132 -104 -149 -155 -17 -53 -9 -149 16 -184 26 -35 75 -59 150 -74 72 -14
330 -14 399 0 27 6 51 9 52 8 2 -1 -6 -20 -17 -41 -24 -47 -27 -149 -6 -198
17 -39 61 -82 101 -97 43 -17 425 -25 500 -11 215 40 428 281 474 538 6 33 18
134 26 224 8 90 35 315 60 499 69 509 95 746 104 961 4 107 11 200 14 206 4 6
131 12 349 16 346 6 589 20 948 57 194 20 480 56 532 66 25 5 29 1 62 -68 68
-142 280 -378 546 -606 166 -143 360 -331 406 -393 21 -28 34 -58 34 -76 0
-37 -90 -294 -133 -382 -50 -102 -114 -165 -224 -217 -160 -77 -199 -130 -191
-263 5 -97 48 -151 134 -171 63 -15 370 -12 447 5 124 26 245 111 325 227 71
104 341 551 366 606 11 23 22 42 26 42 4 0 64 -55 133 -122 153 -150 155 -155
126 -305 -54 -281 -121 -393 -285 -476 -77 -39 -107 -64 -129 -108 -40 -76
-23 -208 32 -261 54 -52 85 -58 300 -58 267 0 343 19 449 112 58 51 104 128
252 428 164 329 191 400 199 522 l6 88 41 -38 c103 -95 209 -144 348 -162 144
-17 290 7 428 73 69 32 100 55 166 122 108 110 158 205 158 303 1 182 -173
282 -288 167 -19 -19 -55 -73 -81 -120 -53 -98 -86 -126 -169 -150 -116 -34
-250 3 -319 88 -86 105 -134 229 -192 497 -64 293 -93 513 -150 1140 -53 574
-94 803 -189 1049 -161 417 -452 742 -819 916 -362 172 -708 202 -1397 122
-759 -88 -1081 -72 -1587 79 -336 100 -586 219 -943 447 -246 158 -397 247
-510 300 -122 57 -294 125 -397 156 -39 11 -86 33 -103 47 -31 27 -120 145
-120 160 0 4 23 56 50 115 57 120 71 181 59 268 -27 196 -206 335 -387 300z
m155 -85 c50 -18 117 -88 145 -152 13 -30 21 -69 22 -112 1 -59 -4 -76 -52
-177 -64 -137 -69 -160 -47 -204 24 -46 120 -166 150 -185 13 -8 70 -30 127
-48 258 -82 468 -186 808 -403 361 -229 485 -296 729 -393 175 -70 298 -108
491 -154 452 -108 764 -112 1500 -21 489 61 779 49 1079 -47 503 -160 874
-562 1036 -1123 53 -183 101 -508 130 -880 39 -497 76 -786 141 -1095 52 -245
78 -332 136 -443 85 -162 189 -237 342 -245 98 -5 169 12 237 58 36 23 56 48
90 112 54 100 106 158 142 158 35 0 93 -52 107 -96 15 -44 6 -83 -38 -169 -68
-133 -202 -238 -358 -281 -89 -24 -254 -29 -337 -10 -189 44 -347 196 -458
441 -129 286 -242 835 -309 1510 -30 297 -55 467 -96 640 -20 83 -42 191 -49
240 -26 172 -71 349 -130 516 -34 97 -124 264 -172 321 -50 57 -56 55 -14 -5
78 -114 150 -301 195 -507 40 -184 50 -371 40 -705 -5 -159 -9 -434 -9 -610 1
-286 3 -333 23 -445 52 -293 145 -504 370 -843 198 -299 238 -450 172 -659
-33 -107 -304 -647 -358 -714 -97 -120 -172 -144 -447 -144 -173 0 -193 2
-223 20 -59 36 -80 130 -44 199 13 25 37 45 97 77 175 93 238 183 301 429 42
165 47 242 19 300 -21 43 -157 184 -300 310 -467 413 -972 932 -1266 1300
-167 209 -328 462 -374 588 -23 62 -31 54 -9 -9 26 -79 119 -254 199 -375 41
-62 74 -114 72 -115 -14 -11 -334 -78 -406 -85 -53 -4 -112 -13 -131 -19 -48
-14 -384 -55 -652 -80 -315 -28 -565 -40 -845 -40 l-243 0 0 103 c0 108 -16
318 -29 377 -5 22 -10 -43 -14 -180 -3 -118 -12 -269 -21 -335 -8 -66 -17
-187 -21 -270 -10 -244 -32 -453 -101 -940 -25 -176 -52 -401 -60 -500 -8 -99
-24 -216 -35 -260 -40 -165 -177 -342 -315 -407 l-69 -33 -241 1 c-160 1 -248
6 -262 13 -33 17 -52 64 -52 123 0 80 22 108 125 157 103 49 170 114 218 210
l32 66 3 245 c8 500 -29 941 -118 1415 -58 307 -74 335 -225 379 -247 72 -414
207 -521 421 -48 98 -56 129 -104 434 -81 505 -192 799 -423 1114 -27 37 -48
69 -46 71 2 2 49 16 104 30 201 54 343 147 410 271 29 55 35 60 75 67 126 22
243 137 304 299 27 73 60 198 70 269 11 71 -9 34 -27 -52 -31 -150 -121 -334
-194 -398 -44 -39 -122 -76 -179 -85 -38 -6 -45 -12 -89 -81 -91 -140 -225
-208 -491 -247 -81 -12 -97 -18 -133 -49 -55 -47 -124 -68 -226 -68 -167 0
-303 69 -389 199 -39 57 -64 82 -116 116 -37 24 -76 56 -88 72 -34 47 -52 130
-53 234 0 115 11 168 62 278 42 91 46 124 28 226 -10 51 -9 83 5 177 22 158
21 199 -9 258 -14 28 -40 92 -57 143 -55 165 -41 296 42 371 64 58 145 60 256
7 63 -30 144 -86 144 -99 0 -4 -15 -16 -32 -27 -89 -51 -241 -231 -277 -327
-15 -41 -7 -34 27 20 98 158 266 275 452 315 117 25 384 29 531 8 77 -10 101
-11 119 -1 13 7 61 52 107 100 151 159 235 191 370 144z m5693 -3575 c10 -74
31 -244 45 -379 44 -413 116 -878 171 -1094 14 -54 23 -103 22 -108 -2 -6 -27
32 -55 83 -196 356 -254 659 -232 1219 9 261 19 423 25 417 3 -2 13 -64 24
-138z m-5787 -456 c112 -120 251 -202 424 -253 115 -33 112 -28 168 -320 78
-413 112 -762 117 -1195 3 -217 2 -233 -19 -289 -55 -146 -177 -299 -276 -349
-102 -51 -335 -73 -463 -42 -93 22 -113 33 -125 76 -22 73 10 143 89 190 85
51 174 114 192 136 10 13 29 54 42 91 21 60 23 85 23 237 -1 433 -43 822 -135
1220 -48 209 -87 387 -106 483 -7 40 -16 85 -20 100 l-5 27 23 -30 c12 -16 45
-53 71 -82z m3966 -202 c11 -20 110 -147 199 -255 218 -264 415 -479 738 -806
l282 -284 -27 -61 c-16 -33 -63 -116 -106 -185 -43 -69 -109 -176 -147 -238
-122 -202 -194 -283 -292 -328 -79 -36 -229 -50 -400 -38 -171 12 -181 19
-181 124 0 93 16 112 145 176 185 91 249 179 354 482 55 158 59 212 21 276
-29 49 -299 318 -427 424 -242 201 -504 491 -543 601 l-13 38 85 18 c47 10
131 31 187 46 123 34 113 33 125 10z m-3289 -2071 c-23 -45 -102 -130 -121
-130 -6 0 14 27 45 61 31 33 63 74 72 91 8 16 18 28 20 25 3 -3 -4 -24 -16
-47z"/>
<path d="M773 6345 c-27 -19 -39 -75 -23 -105 6 -12 27 -28 45 -36 48 -20 93
-2 112 44 15 37 11 48 -22 54 -15 3 -20 11 -18 31 2 25 -1 27 -35 27 -21 0
-47 -7 -59 -15z"/>
<path d="M1541 6324 c-25 -31 -27 -64 -6 -103 26 -52 91 -57 136 -12 30 31 36
59 18 92 -8 16 -13 18 -25 9 -20 -18 -47 -4 -41 20 4 17 0 20 -28 20 -24 0
-39 -7 -54 -26z"/>
<path d="M1235 5669 c5 -8 32 -48 61 -89 111 -161 150 -277 140 -415 -4 -57
-3 -76 4 -65 28 40 42 77 51 132 19 120 -30 247 -137 353 -59 59 -136 113
-119 84z"/>
<path d="M925 5489 c-4 -5 -9 -34 -12 -64 -5 -47 -9 -55 -33 -65 -34 -14 -130
-99 -112 -100 7 0 40 12 75 26 79 33 118 30 261 -24 59 -23 125 -44 145 -47
l36 -6 -35 30 c-42 37 -223 131 -251 131 -22 0 -25 6 -34 72 -6 44 -27 69 -40
47z"/>
</g>
</svg>
